<?xml version="1.0" encoding="UTF-8" standalone="no"?>
<!DOCTYPE svg PUBLIC "-//W3C//DTD SVG 1.1//EN"
 "http://www.w3.org/Graphics/SVG/1.1/DTD/svg11.dtd">
<!-- Generated by graphviz version 2.40.1 (20161225.0304)
 -->
<!-- Title: G Pages: 1 -->
<svg width="431pt" height="426pt"
 viewBox="0.00 0.00 431.13 426.40" xmlns="http://www.w3.org/2000/svg" xmlns:xlink="http://www.w3.org/1999/xlink">
<g id="graph0" class="graph" transform="scale(1 1) rotate(0) translate(4 422.4)">
<title>G</title>
<polygon fill="#ffffff" stroke="transparent" points="-4,4 -4,-422.4 427.1312,-422.4 427.1312,4 -4,4"/>
<!-- categories -->
<g id="node1" class="node">
<title>categories</title>
<polygon fill="none" stroke="#000000" points="173.8108,-418.4 101.3204,-418.4 101.3204,-382.4 173.8108,-382.4 173.8108,-418.4"/>
<text text-anchor="middle" x="137.5656" y="-396.2" font-family="Times,serif" font-size="14.00" fill="#000000">categories</text>
</g>
<!-- monoidal categories -->
<g id="node2" class="node">
<title>monoidal categories</title>
<polygon fill="none" stroke="#000000" points="202.1969,-346.4 72.9343,-346.4 72.9343,-310.4 202.1969,-310.4 202.1969,-346.4"/>
<text text-anchor="middle" x="137.5656" y="-324.2" font-family="Times,serif" font-size="14.00" fill="#000000">monoidal categories</text>
</g>
<!-- categories&#45;&gt;monoidal categories -->
<g id="edge1" class="edge">
<title>categories&#45;&gt;monoidal categories</title>
<path fill="none" stroke="#000000" d="M137.5656,-382.2314C137.5656,-371.4 137.5656,-357.6876 137.5656,-346.8133"/>
</g>
<!-- braided\nmonoidal categories -->
<g id="node3" class="node">
<title>braided\nmonoidal categories</title>
<polygon fill="none" stroke="#000000" points="129.1969,-274.2019 -.0657,-274.2019 -.0657,-232.9981 129.1969,-232.9981 129.1969,-274.2019"/>
<text text-anchor="middle" x="64.5656" y="-257.8" font-family="Times,serif" font-size="14.00" fill="#000000">braided</text>
<text text-anchor="middle" x="64.5656" y="-241" font-family="Times,serif" font-size="14.00" fill="#000000">monoidal categories</text>
</g>
<!-- monoidal categories&#45;&gt;braided\nmonoidal categories -->
<g id="edge2" class="edge">
<title>monoidal categories&#45;&gt;braided\nmonoidal categories</title>
<path fill="none" stroke="#000000" d="M119.8943,-310.293C109.3452,-299.4838 95.9066,-285.7138 84.9153,-274.4515"/>
</g>
<!-- closed\nmonoidal categories -->
<g id="node7" class="node">
<title>closed\nmonoidal categories</title>
<polygon fill="none" stroke="#ffa500" points="276.1969,-274.2019 146.9343,-274.2019 146.9343,-232.9981 276.1969,-232.9981 276.1969,-274.2019"/>
<text text-anchor="middle" x="211.5656" y="-257.8" font-family="Times,serif" font-size="14.00" fill="#000000">closed</text>
<text text-anchor="middle" x="211.5656" y="-241" font-family="Times,serif" font-size="14.00" fill="#000000">monoidal categories</text>
</g>
<!-- monoidal categories&#45;&gt;closed\nmonoidal categories -->
<g id="edge6" class="edge">
<title>monoidal categories&#45;&gt;closed\nmonoidal categories</title>
<path fill="none" stroke="#000000" d="M155.4789,-310.293C166.1725,-299.4838 179.7953,-285.7138 190.9371,-274.4515"/>
</g>
<!-- symmetric\nmonoidal categories -->
<g id="node4" class="node">
<title>symmetric\nmonoidal categories</title>
<polygon fill="none" stroke="#000000" points="129.1969,-196.6019 -.0657,-196.6019 -.0657,-155.3981 129.1969,-155.3981 129.1969,-196.6019"/>
<text text-anchor="middle" x="64.5656" y="-180.2" font-family="Times,serif" font-size="14.00" fill="#000000">symmetric</text>
<text text-anchor="middle" x="64.5656" y="-163.4" font-family="Times,serif" font-size="14.00" fill="#000000">monoidal categories</text>
</g>
<!-- braided\nmonoidal categories&#45;&gt;symmetric\nmonoidal categories -->
<g id="edge3" class="edge">
<title>braided\nmonoidal categories&#45;&gt;symmetric\nmonoidal categories</title>
<path fill="none" stroke="#000000" d="M64.5656,-232.8046C64.5656,-221.6708 64.5656,-207.9954 64.5656,-196.8528"/>
</g>
<!-- cartesian categories -->
<g id="node5" class="node">
<title>cartesian categories</title>
<polygon fill="none" stroke="#ffa500" points="128.5552,-116.4 2.576,-116.4 2.576,-80.4 128.5552,-80.4 128.5552,-116.4"/>
<text text-anchor="middle" x="65.5656" y="-94.2" font-family="Times,serif" font-size="14.00" fill="#000000">cartesian categories</text>
</g>
<!-- symmetric\nmonoidal categories&#45;&gt;cartesian categories -->
<g id="edge4" class="edge">
<title>symmetric\nmonoidal categories&#45;&gt;cartesian categories</title>
<path fill="none" stroke="#000000" d="M64.8336,-155.2046C64.9886,-143.1729 65.1819,-128.1731 65.3309,-116.6091"/>
</g>
<!-- cartesian\nclosed categories -->
<g id="node6" class="node">
<title>cartesian\nclosed categories</title>
<polygon fill="none" stroke="#ffa500" points="196.5748,-41.4019 84.5564,-41.4019 84.5564,-.1981 196.5748,-.1981 196.5748,-41.4019"/>
<text text-anchor="middle" x="140.5656" y="-25" font-family="Times,serif" font-size="14.00" fill="#000000">cartesian</text>
<text text-anchor="middle" x="140.5656" y="-8.2" font-family="Times,serif" font-size="14.00" fill="#000000">closed categories</text>
</g>
<!-- cartesian categories&#45;&gt;cartesian\nclosed categories -->
<g id="edge5" class="edge">
<title>cartesian categories&#45;&gt;cartesian\nclosed categories</title>
<path fill="none" stroke="#000000" d="M83.3396,-80.0099C94.5154,-68.4466 108.9591,-53.5022 120.5393,-41.5205"/>
</g>
<!-- closed braided\nmonoidal categories -->
<g id="node8" class="node">
<title>closed braided\nmonoidal categories</title>
<polygon fill="none" stroke="#ffa500" points="276.1969,-196.6019 146.9343,-196.6019 146.9343,-155.3981 276.1969,-155.3981 276.1969,-196.6019"/>
<text text-anchor="middle" x="211.5656" y="-180.2" font-family="Times,serif" font-size="14.00" fill="#000000">closed braided</text>
<text text-anchor="middle" x="211.5656" y="-163.4" font-family="Times,serif" font-size="14.00" fill="#000000">monoidal categories</text>
</g>
<!-- closed\nmonoidal categories&#45;&gt;closed braided\nmonoidal categories -->
<g id="edge7" class="edge">
<title>closed\nmonoidal categories&#45;&gt;closed braided\nmonoidal categories</title>
<path fill="none" stroke="#000000" d="M211.5656,-232.8046C211.5656,-221.6708 211.5656,-207.9954 211.5656,-196.8528"/>
</g>
<!-- compact\nmonoidal categories -->
<g id="node10" class="node">
<title>compact\nmonoidal categories</title>
<polygon fill="none" stroke="#000000" points="423.1969,-196.6019 293.9343,-196.6019 293.9343,-155.3981 423.1969,-155.3981 423.1969,-196.6019"/>
<text text-anchor="middle" x="358.5656" y="-180.2" font-family="Times,serif" font-size="14.00" fill="#000000">compact</text>
<text text-anchor="middle" x="358.5656" y="-163.4" font-family="Times,serif" font-size="14.00" fill="#000000">monoidal categories</text>
</g>
<!-- closed\nmonoidal categories&#45;&gt;compact\nmonoidal categories -->
<g id="edge10" class="edge">
<title>closed\nmonoidal categories&#45;&gt;compact\nmonoidal categories</title>
<path fill="none" stroke="#000000" d="M250.9589,-232.8046C272.1352,-221.6259 298.1648,-207.885 319.3187,-196.7181"/>
</g>
<!-- closed symmetric\nmonoidal categories -->
<g id="node9" class="node">
<title>closed symmetric\nmonoidal categories</title>
<polygon fill="none" stroke="#ffa500" points="276.1969,-119.0019 146.9343,-119.0019 146.9343,-77.7981 276.1969,-77.7981 276.1969,-119.0019"/>
<text text-anchor="middle" x="211.5656" y="-102.6" font-family="Times,serif" font-size="14.00" fill="#000000">closed symmetric</text>
<text text-anchor="middle" x="211.5656" y="-85.8" font-family="Times,serif" font-size="14.00" fill="#000000">monoidal categories</text>
</g>
<!-- closed braided\nmonoidal categories&#45;&gt;closed symmetric\nmonoidal categories -->
<g id="edge8" class="edge">
<title>closed braided\nmonoidal categories&#45;&gt;closed symmetric\nmonoidal categories</title>
<path fill="none" stroke="#000000" d="M211.5656,-155.2046C211.5656,-144.0708 211.5656,-130.3954 211.5656,-119.2528"/>
</g>
<!-- closed symmetric\nmonoidal categories&#45;&gt;cartesian\nclosed categories -->
<g id="edge9" class="edge">
<title>closed symmetric\nmonoidal categories&#45;&gt;cartesian\nclosed categories</title>
<path fill="none" stroke="#000000" d="M192.5389,-77.6046C182.352,-66.4708 169.8397,-52.7954 159.6448,-41.6528"/>
</g>
<!-- compact symmetric\nmonoidal categories -->
<g id="node12" class="node">
<title>compact symmetric\nmonoidal categories</title>
<polygon fill="none" stroke="#000000" points="347.1969,-41.4019 217.9343,-41.4019 217.9343,-.1981 347.1969,-.1981 347.1969,-41.4019"/>
<text text-anchor="middle" x="282.5656" y="-25" font-family="Times,serif" font-size="14.00" fill="#000000">compact symmetric</text>
<text text-anchor="middle" x="282.5656" y="-8.2" font-family="Times,serif" font-size="14.00" fill="#000000">monoidal categories</text>
</g>
<!-- closed symmetric\nmonoidal categories&#45;&gt;compact symmetric\nmonoidal categories -->
<g id="edge13" class="edge">
<title>closed symmetric\nmonoidal categories&#45;&gt;compact symmetric\nmonoidal categories</title>
<path fill="none" stroke="#000000" d="M230.5923,-77.6046C240.7792,-66.4708 253.2915,-52.7954 263.4864,-41.6528"/>
</g>
<!-- compact braided\nmonoidal categories -->
<g id="node11" class="node">
<title>compact braided\nmonoidal categories</title>
<polygon fill="none" stroke="#000000" points="423.1969,-119.0019 293.9343,-119.0019 293.9343,-77.7981 423.1969,-77.7981 423.1969,-119.0019"/>
<text text-anchor="middle" x="358.5656" y="-102.6" font-family="Times,serif" font-size="14.00" fill="#000000">compact braided</text>
<text text-anchor="middle" x="358.5656" y="-85.8" font-family="Times,serif" font-size="14.00" fill="#000000">monoidal categories</text>
</g>
<!-- compact\nmonoidal categories&#45;&gt;compact braided\nmonoidal categories -->
<g id="edge11" class="edge">
<title>compact\nmonoidal categories&#45;&gt;compact braided\nmonoidal categories</title>
<path fill="none" stroke="#000000" d="M358.5656,-155.2046C358.5656,-144.0708 358.5656,-130.3954 358.5656,-119.2528"/>
</g>
<!-- compact braided\nmonoidal categories&#45;&gt;compact symmetric\nmonoidal categories -->
<g id="edge12" class="edge">
<title>compact braided\nmonoidal categories&#45;&gt;compact symmetric\nmonoidal categories</title>
<path fill="none" stroke="#000000" d="M338.199,-77.6046C327.2947,-66.4708 313.9013,-52.7954 302.9884,-41.6528"/>
</g>
</g>
</svg>
